# xmcd
#
# Track frame offsets: 
#        150
#        13516
#        34460
#        55145
#        70167
#
# Disc length: 1203 seconds
#
# Revision: 0
# Processed by: cddbd v1.5.2PL0 Copyright (c) Steve Scherf et al.
# Submitted via: ExactAudioCopyFreeDBPlugin 1.0
#
DISCID=3d04b105
DTITLE=British Sea Power - Machineries of Joy Bonus
DYEAR=2013
DGENRE=Indie
TTITLE0=Facts Are Right
TTITLE1=Fingertips
TTITLE2=Baby Grey
TTITLE3=Lullaby for What You Are
TTITLE4=Chrysanthemum
EXTD=
EXTT0=
EXTT1=
EXTT2=
EXTT3=
EXTT4=
PLAYORDER=
